<mxfile host="app.diagrams.net" modified="2023-05-31T15:47:03.731Z" agent="Mozilla/5.0 (Windows NT 10.0; Win64; x64) AppleWebKit/537.36 (KHTML, like Gecko) Chrome/113.0.0.0 Safari/537.36" etag="9N9GIGCMRppo1mTG-qCw" version="21.3.4" type="device">
  <diagram name="Page-1" id="e3a06f82-3646-2815-327d-82caf3d4e204">
    <mxGraphModel dx="-387.5" dy="666" grid="1" gridSize="10" guides="1" tooltips="1" connect="1" arrows="1" fold="1" page="1" pageScale="1.5" pageWidth="1169" pageHeight="826" background="none" math="0" shadow="0">
      <root>
        <mxCell id="0" style=";html=1;" />
        <mxCell id="1" style=";html=1;" parent="0" />
        <mxCell id="1B9U6ReErFZ_DN10sKBM-38" value="" style="rounded=0;whiteSpace=wrap;html=1;fillColor=#dae8fc;strokeColor=#6c8ebf;" parent="1" vertex="1">
          <mxGeometry x="1960" y="50" width="550" height="656" as="geometry" />
        </mxCell>
        <mxCell id="1B9U6ReErFZ_DN10sKBM-39" value="OpenStack Infrastruktur&amp;nbsp;&amp;nbsp;" style="rounded=0;whiteSpace=wrap;html=1;fillColor=#6C8EBF;strokeColor=#6C8EBF;fontSize=19;align=right;" parent="1" vertex="1">
          <mxGeometry x="1960" y="50" width="270" height="60" as="geometry" />
        </mxCell>
        <mxCell id="1B9U6ReErFZ_DN10sKBM-40" value="" style="image;aspect=fixed;perimeter=ellipsePerimeter;html=1;align=center;shadow=0;dashed=0;spacingTop=3;image=img/lib/active_directory/internet_cloud.svg;" parent="1" vertex="1">
          <mxGeometry x="1964" y="64" width="50" height="31.5" as="geometry" />
        </mxCell>
        <mxCell id="1B9U6ReErFZ_DN10sKBM-46" value="gitlabrunners&lt;br&gt;10.0.0.0/24" style="whiteSpace=wrap;html=1;fillColor=#e1d5e7;fontSize=14;strokeColor=#9673a6;verticalAlign=top;" parent="1" vertex="1">
          <mxGeometry x="2250" y="123" width="250" height="573" as="geometry" />
        </mxCell>
        <mxCell id="1B9U6ReErFZ_DN10sKBM-41" value="m1.large | Debian-11&lt;br&gt;" style="rounded=0;whiteSpace=wrap;html=1;fillColor=#f8cecc;strokeColor=#b85450;labelPosition=center;verticalLabelPosition=bottom;align=center;verticalAlign=top;" parent="1" vertex="1">
          <mxGeometry x="2321" y="199.75" width="160" height="120.5" as="geometry" />
        </mxCell>
        <mxCell id="1B9U6ReErFZ_DN10sKBM-43" value="Runner 1&amp;nbsp;" style="rounded=0;whiteSpace=wrap;html=1;fillColor=#B85450;strokeColor=#B85450;labelPosition=center;verticalLabelPosition=middle;align=right;verticalAlign=middle;horizontal=1;" parent="1" vertex="1">
          <mxGeometry x="2321" y="199.75" width="90" height="40.5" as="geometry" />
        </mxCell>
        <mxCell id="1B9U6ReErFZ_DN10sKBM-42" value="" style="image;sketch=0;aspect=fixed;html=1;points=[];align=center;fontSize=12;image=img/lib/mscae/VM_Linux.svg;" parent="1" vertex="1">
          <mxGeometry x="2327" y="207.39999999999998" width="24.84" height="22.85" as="geometry" />
        </mxCell>
        <mxCell id="fE1kV24NWtORxop7M1_D-11" style="edgeStyle=orthogonalEdgeStyle;rounded=0;orthogonalLoop=1;jettySize=auto;html=1;endArrow=none;endFill=0;" edge="1" parent="1" source="1B9U6ReErFZ_DN10sKBM-44">
          <mxGeometry relative="1" as="geometry">
            <mxPoint x="2280" y="416" as="targetPoint" />
          </mxGeometry>
        </mxCell>
        <mxCell id="1B9U6ReErFZ_DN10sKBM-44" value="" style="shape=image;html=1;verticalAlign=top;verticalLabelPosition=bottom;labelBackgroundColor=#ffffff;imageAspect=0;aspect=fixed;image=https://cdn4.iconfinder.com/data/icons/socialcones/508/Github-128.png" parent="1" vertex="1">
          <mxGeometry x="2340.38" y="250.25" width="51.25" height="51.25" as="geometry" />
        </mxCell>
        <mxCell id="1B9U6ReErFZ_DN10sKBM-71" value="provider" style="whiteSpace=wrap;html=1;fillColor=#e1d5e7;fontSize=14;strokeColor=#9673a6;verticalAlign=top;" parent="1" vertex="1">
          <mxGeometry x="1970" y="123" width="260" height="273" as="geometry" />
        </mxCell>
        <mxCell id="1B9U6ReErFZ_DN10sKBM-45" value="" style="shape=image;html=1;verticalAlign=top;verticalLabelPosition=bottom;labelBackgroundColor=#ffffff;imageAspect=0;aspect=fixed;image=https://cdn1.iconfinder.com/data/icons/social-media-2106/24/social_media_social_media_logo_docker-128.png" parent="1" vertex="1">
          <mxGeometry x="2411" y="247.75" width="56.25" height="56.25" as="geometry" />
        </mxCell>
        <mxCell id="1B9U6ReErFZ_DN10sKBM-53" value="optional Runner" style="rounded=0;whiteSpace=wrap;html=1;fillColor=#f8cecc;strokeColor=#b85450;labelPosition=center;verticalLabelPosition=bottom;align=center;verticalAlign=top;fillStyle=solid;opacity=20;" parent="1" vertex="1">
          <mxGeometry x="2321" y="368" width="160" height="120.5" as="geometry" />
        </mxCell>
        <mxCell id="1B9U6ReErFZ_DN10sKBM-54" value="Runner n&amp;nbsp;" style="rounded=0;whiteSpace=wrap;html=1;fillColor=#B85450;strokeColor=#b85450;labelPosition=center;verticalLabelPosition=middle;align=right;verticalAlign=middle;horizontal=1;fillStyle=auto;opacity=20;" parent="1" vertex="1">
          <mxGeometry x="2321" y="368" width="90" height="40.5" as="geometry" />
        </mxCell>
        <mxCell id="1B9U6ReErFZ_DN10sKBM-55" value="" style="image;sketch=0;aspect=fixed;html=1;points=[];align=center;fontSize=12;image=img/lib/mscae/VM_Linux.svg;opacity=20;" parent="1" vertex="1">
          <mxGeometry x="2327" y="375.65" width="24.84" height="22.85" as="geometry" />
        </mxCell>
        <mxCell id="1B9U6ReErFZ_DN10sKBM-56" value="" style="shape=image;html=1;verticalAlign=top;verticalLabelPosition=bottom;labelBackgroundColor=#ffffff;imageAspect=0;aspect=fixed;image=https://cdn4.iconfinder.com/data/icons/socialcones/508/Github-128.png;opacity=20;" parent="1" vertex="1">
          <mxGeometry x="2340.38" y="421.25" width="51.25" height="51.25" as="geometry" />
        </mxCell>
        <mxCell id="1B9U6ReErFZ_DN10sKBM-57" value="" style="shape=image;html=1;verticalAlign=top;verticalLabelPosition=bottom;labelBackgroundColor=#ffffff;imageAspect=0;aspect=fixed;image=https://cdn1.iconfinder.com/data/icons/social-media-2106/24/social_media_social_media_logo_docker-128.png;opacity=20;" parent="1" vertex="1">
          <mxGeometry x="2411" y="417.87" width="56.25" height="56.25" as="geometry" />
        </mxCell>
        <mxCell id="fE1kV24NWtORxop7M1_D-12" style="edgeStyle=orthogonalEdgeStyle;rounded=0;orthogonalLoop=1;jettySize=auto;html=1;endArrow=none;endFill=0;" edge="1" parent="1" source="1B9U6ReErFZ_DN10sKBM-58">
          <mxGeometry relative="1" as="geometry">
            <mxPoint x="2280" y="416" as="targetPoint" />
          </mxGeometry>
        </mxCell>
        <mxCell id="1B9U6ReErFZ_DN10sKBM-58" value="optional Runner" style="rounded=0;whiteSpace=wrap;html=1;fillColor=#f8cecc;strokeColor=#b85450;labelPosition=center;verticalLabelPosition=bottom;align=center;verticalAlign=top;fillStyle=solid;opacity=20;" parent="1" vertex="1">
          <mxGeometry x="2321" y="529" width="160" height="120.5" as="geometry" />
        </mxCell>
        <mxCell id="1B9U6ReErFZ_DN10sKBM-59" value="Runner n&amp;nbsp;" style="rounded=0;whiteSpace=wrap;html=1;fillColor=#B85450;strokeColor=#b85450;labelPosition=center;verticalLabelPosition=middle;align=right;verticalAlign=middle;horizontal=1;fillStyle=auto;opacity=20;" parent="1" vertex="1">
          <mxGeometry x="2321" y="529" width="90" height="40.5" as="geometry" />
        </mxCell>
        <mxCell id="1B9U6ReErFZ_DN10sKBM-60" value="" style="image;sketch=0;aspect=fixed;html=1;points=[];align=center;fontSize=12;image=img/lib/mscae/VM_Linux.svg;opacity=20;" parent="1" vertex="1">
          <mxGeometry x="2327" y="536.65" width="24.84" height="22.85" as="geometry" />
        </mxCell>
        <mxCell id="1B9U6ReErFZ_DN10sKBM-61" value="" style="shape=image;html=1;verticalAlign=top;verticalLabelPosition=bottom;labelBackgroundColor=#ffffff;imageAspect=0;aspect=fixed;image=https://cdn4.iconfinder.com/data/icons/socialcones/508/Github-128.png;opacity=20;" parent="1" vertex="1">
          <mxGeometry x="2340.38" y="579.75" width="51.25" height="51.25" as="geometry" />
        </mxCell>
        <mxCell id="1B9U6ReErFZ_DN10sKBM-62" value="" style="shape=image;html=1;verticalAlign=top;verticalLabelPosition=bottom;labelBackgroundColor=#ffffff;imageAspect=0;aspect=fixed;image=https://cdn1.iconfinder.com/data/icons/social-media-2106/24/social_media_social_media_logo_docker-128.png;opacity=20;" parent="1" vertex="1">
          <mxGeometry x="2411" y="577.25" width="56.25" height="56.25" as="geometry" />
        </mxCell>
        <mxCell id="1B9U6ReErFZ_DN10sKBM-72" value="" style="verticalLabelPosition=bottom;sketch=0;html=1;fillColor=#282828;strokeColor=none;verticalAlign=top;pointerEvents=1;align=center;shape=mxgraph.cisco_safe.iot_things_icons.icon47;" parent="1" vertex="1">
          <mxGeometry x="1830" y="365.25" width="90" height="88.5" as="geometry" />
        </mxCell>
        <mxCell id="1B9U6ReErFZ_DN10sKBM-73" value="" style="edgeStyle=orthogonalEdgeStyle;rounded=0;orthogonalLoop=1;jettySize=auto;html=1;entryX=0.473;entryY=-0.043;entryDx=0;entryDy=0;entryPerimeter=0;endArrow=none;endFill=0;exitX=0;exitY=0.5;exitDx=0;exitDy=0;" parent="1" source="fE1kV24NWtORxop7M1_D-1" target="1B9U6ReErFZ_DN10sKBM-72" edge="1">
          <mxGeometry relative="1" as="geometry">
            <mxPoint x="1920" y="224.58333333333348" as="sourcePoint" />
          </mxGeometry>
        </mxCell>
        <mxCell id="fE1kV24NWtORxop7M1_D-10" style="edgeStyle=orthogonalEdgeStyle;rounded=0;orthogonalLoop=1;jettySize=auto;html=1;entryX=0;entryY=0.5;entryDx=0;entryDy=0;endArrow=none;endFill=0;exitX=1;exitY=0.5;exitDx=0;exitDy=0;" edge="1" parent="1" source="fE1kV24NWtORxop7M1_D-1" target="1B9U6ReErFZ_DN10sKBM-53">
          <mxGeometry relative="1" as="geometry">
            <Array as="points">
              <mxPoint x="2280" y="252" />
              <mxPoint x="2280" y="428" />
            </Array>
          </mxGeometry>
        </mxCell>
        <mxCell id="fE1kV24NWtORxop7M1_D-1" value="m1.large | Debian-11" style="rounded=0;whiteSpace=wrap;html=1;fillColor=#f8cecc;strokeColor=#b85450;labelPosition=center;verticalLabelPosition=bottom;align=center;verticalAlign=top;" vertex="1" parent="1">
          <mxGeometry x="2016.65" y="191.5" width="160" height="120.5" as="geometry" />
        </mxCell>
        <mxCell id="fE1kV24NWtORxop7M1_D-2" value="gitlab-ce&amp;nbsp;" style="rounded=0;whiteSpace=wrap;html=1;fillColor=#B85450;strokeColor=#B85450;labelPosition=center;verticalLabelPosition=middle;align=right;verticalAlign=middle;horizontal=1;" vertex="1" parent="1">
          <mxGeometry x="2016.65" y="191.5" width="90" height="40.5" as="geometry" />
        </mxCell>
        <mxCell id="fE1kV24NWtORxop7M1_D-7" value="" style="shape=image;html=1;verticalAlign=top;verticalLabelPosition=bottom;labelBackgroundColor=#ffffff;imageAspect=0;aspect=fixed;image=https://cdn1.iconfinder.com/data/icons/KDE_Crystal_Diamond_2.5_Classical_Mod/128x128/mimetypes/deb.png" vertex="1" parent="1">
          <mxGeometry x="2018.65" y="194.89999999999998" width="33.35" height="33.35" as="geometry" />
        </mxCell>
        <mxCell id="fE1kV24NWtORxop7M1_D-8" value="" style="shape=image;html=1;verticalAlign=top;verticalLabelPosition=bottom;labelBackgroundColor=#ffffff;imageAspect=0;aspect=fixed;image=https://cdn4.iconfinder.com/data/icons/socialcones/508/Gitlab-128.png" vertex="1" parent="1">
          <mxGeometry x="2066.21" y="239.12" width="62.88" height="62.88" as="geometry" />
        </mxCell>
        <mxCell id="fE1kV24NWtORxop7M1_D-15" style="edgeStyle=orthogonalEdgeStyle;rounded=0;orthogonalLoop=1;jettySize=auto;html=1;endArrow=none;endFill=0;" edge="1" parent="1" source="fE1kV24NWtORxop7M1_D-14">
          <mxGeometry relative="1" as="geometry">
            <mxPoint x="2280" y="426" as="targetPoint" />
          </mxGeometry>
        </mxCell>
        <mxCell id="fE1kV24NWtORxop7M1_D-16" style="edgeStyle=orthogonalEdgeStyle;rounded=0;orthogonalLoop=1;jettySize=auto;html=1;entryX=0.496;entryY=1.023;entryDx=0;entryDy=0;entryPerimeter=0;endArrow=none;endFill=0;" edge="1" parent="1" source="fE1kV24NWtORxop7M1_D-14" target="1B9U6ReErFZ_DN10sKBM-72">
          <mxGeometry relative="1" as="geometry" />
        </mxCell>
        <mxCell id="fE1kV24NWtORxop7M1_D-14" value="10.0.0.254" style="verticalLabelPosition=bottom;html=1;verticalAlign=top;strokeWidth=1;align=center;outlineConnect=0;dashed=0;outlineConnect=0;shape=mxgraph.aws3d.internetGateway;fillColor=#ECECEC;strokeColor=#5E5E5E;aspect=fixed;" vertex="1" parent="1">
          <mxGeometry x="2041.65" y="510" width="116.7" height="102.8" as="geometry" />
        </mxCell>
      </root>
    </mxGraphModel>
  </diagram>
</mxfile>
